HIERARCHY
ROOT pelvis
{
  OFFSET 0 100 0
  CHANNELS 6 Xposition Yposition Zposition Zrotation Xrotation Yrotation
  JOINT pelvis_right_femur
  {
    OFFSET -10.78128 -3.44521 -0.5502486
    CHANNELS 3 Zrotation Xrotation Yrotation
    JOINT right_femur_tibia
    {
      OFFSET -0.8047443 -44.0398 -0.1307829
      CHANNELS 3 Zrotation Xrotation Yrotation
      JOINT right_tibia_foot
      {
        OFFSET 3.006224 -47.83518 -5
        CHANNELS 3 Zrotation Xrotation Yrotation
        End Site
        {
          OFFSET 0 -5 15
        }
      }
    }
  }
  JOINT pelvis_left_femur
  {
    OFFSET 10.78128 -3.44521 -0.5502486
    CHANNELS 3 Zrotation Xrotation Yrotation
    JOINT left_femur_tibia
    {
      OFFSET 0.8047443 -44.0398 -0.1307829
      CHANNELS 3 Zrotation Xrotation Yrotation
      JOINT left_tibia_foot
      {
        OFFSET -4.370144 -48.10324 -4.275266
        CHANNELS 3 Zrotation Xrotation Yrotation
        End Site
        {
          OFFSET 0 -5 15
        }
      }
    }
  }
  JOINT pelvis_spine1
  {
    OFFSET 0 6.468898 -3.129235
    CHANNELS 3 Zrotation Xrotation Yrotation
    JOINT spine1
    {
      OFFSET 0 23.15396 4.99043
      CHANNELS 3 Zrotation Xrotation Yrotation
      JOINT spine2
      {
        OFFSET 0 20.79997 -5.064912
        CHANNELS 3 Zrotation Xrotation Yrotation
        JOINT neck
        {
          OFFSET 0 14.38658 9.616178
          CHANNELS 3 Zrotation Xrotation Yrotation
          End Site
          {
            OFFSET 0 20 0
          }
        }
      }
      JOINT right_manubrium
      {
        OFFSET -5.722621 16.35077 3.967754
        CHANNELS 3 Zrotation Xrotation Yrotation
        JOINT right_clavicle
        {
          OFFSET -13.16364 1.694482 -4.693211
          CHANNELS 3 Zrotation Xrotation Yrotation
          JOINT right_humerus
          {
            OFFSET -28.5034 -0.3100689 -2.792744
            CHANNELS 3 Zrotation Xrotation Yrotation
            JOINT right_radius
            {
              OFFSET -25.15693 0.02248979 -1.271978
              CHANNELS 3 Zrotation Xrotation Yrotation
              End Site
              {
                OFFSET -15 0 0
              }
            }
          }
        }
      }
      JOINT left_manubrium
      {
        OFFSET 5.722621 16.35077 3.967754
        CHANNELS 3 Zrotation Xrotation Yrotation
        JOINT left_clavicle
        {
          OFFSET 13.16364 1.694482 -4.693211
          CHANNELS 3 Zrotation Xrotation Yrotation
          JOINT left_humerus
          {
            OFFSET 29.39168 -1.063119 -2.237045
            CHANNELS 3 Zrotation Xrotation Yrotation
            JOINT left_radius
            {
              OFFSET 24.59957 -0.9528479 0.9047498
              CHANNELS 3 Zrotation Xrotation Yrotation
              End Site
              {
                OFFSET 15 -0 -0
              }
            }
          }
        }
      }
    }
  }
}
MOTION
Frames: 11
Frame Time: 0.0416666666667
0 103.5113 0 1.184923 -3.386727 -0.006128958 1.820838 -12.25881 7.30841 -0 39.65062 -0 -5.446871 -17.16384 -3.665939 -6.356018 12.16749 -23.95246 -0 6.071929 -0 1.899958 -18.03465 24.16181 -0.5805752 -2.014174 5.300892 0.08251708 8.270625 -7.178514 1.473625 22.64269 6.955314 4.88437 -21.97937 7.637624 6.446654 -18.65219 10.52724 88.32879 36.14047 -23.65762 -0 0 16.01226 -4.809841 6.354704 2.167093 6.640034 -21.44503 -2.901623 -101.1521 41.15921 29.43171 0 0 -24.64038 -6.99107 17.82442 26.17798
0.1909526 103.5696 1.275932 0.2280837 -3.174757 -0.2374725 3.181947 -14.81422 8.544559 -0 41.69008 -0 -5.677675 -15.77789 -4.701419 -5.591395 12.14238 -23.788 -0 6.948983 -0 0.0901285 -19.40015 23.8019 -0.5250756 -1.992712 5.217133 0.08043655 8.270212 -7.231904 1.475794 22.57923 7.04033 4.903473 -21.95926 7.715325 6.410603 -18.5597 10.49159 88.54394 36.21406 -23.88957 -0 0 15.89602 -5.047472 6.724045 2.151143 6.774493 -21.55209 -2.892792 -100.7936 41.08827 28.97125 0 0 -24.92252 -6.907238 17.83635 26.05924
0.4002061 103.5451 2.751406 -0.2372147 -1.921221 -0.413087 4.277863 -18.99326 8.626346 -0 39.09281 -0 -5.862928 -13.91076 -4.886636 -5.452361 12.14134 -23.02088 -0 6.811911 -0 0.05989783 -21.16767 23.1264 -0.6846002 -1.836472 5.513308 0.07199022 8.404657 -7.011495 1.339624 22.69097 7.093149 4.835666 -22.11774 7.656713 6.231759 -18.80166 10.62462 88.10927 36.85562 -22.80177 -0 0 15.76214 -6.273068 7.339203 2.86069 6.336073 -21.35972 -2.816205 -100.5463 40.02448 29.33425 0 0 -23.94349 -6.158955 17.56784 25.22768
0.5821991 103.3078 4.575158 -0.4862168 -0.9802224 -0.4941314 4.794202 -23.05216 7.616352 -0 35.06498 -0 -6.438263 -11.66037 -4.796855 -5.375526 12.8187 -21.93072 -0 6.515539 -0 -0.02292368 -22.82547 22.0122 -0.9003215 -1.695843 5.766763 0.1435533 8.47293 -6.800413 1.201733 22.8305 7.06603 4.742201 -22.31111 7.513069 6.088586 -19.02936 10.79417 87.48172 37.24189 -21.59296 -0 0 15.66854 -7.225099 7.54605 3.625336 5.785127 -21.05004 -2.761883 -100.4839 39.09719 29.86689 0 0 -22.81953 -5.70732 17.20528 24.66226
0.7383962 102.8391 6.793581 -0.6055222 0.223603 -0.4502365 5.159698 -26.97898 6.722462 -0 30.29667 -0 -6.645925 -9.717029 -4.527436 -5.40732 13.37187 -20.92296 -0 6.158496 -0 -0.02208208 -24.30665 20.81749 -1.098363 -1.56499 5.984451 0.2210245 8.524574 -6.611935 1.076342 22.94424 7.04468 4.651288 -22.48343 7.382077 5.942023 -19.22575 10.95046 86.88068 37.55317 -20.4569 -0 0 15.59475 -8.160874 7.762956 4.363108 5.288227 -20.75831 -2.709227 -100.355 38.2173 30.27187 0 0 -21.81608 -5.316855 16.8341 24.13684
0.8535088 102.1264 9.488055 -0.6680009 1.367534 -0.2636788 5.335927 -30.48532 5.731555 -0 25.26729 -0 -6.735458 -7.82191 -4.16175 -5.428116 14.10744 -19.90418 -0 6.082535 -0 -0.131679 -25.38633 19.50759 -1.263365 -1.449689 6.157347 0.2929112 8.563192 -6.455864 0.9713101 23.02622 7.035166 4.569982 -22.62204 7.278443 5.800752 -19.38166 11.0815 86.36191 37.79188 -19.47788 -0 0 15.53952 -9.038209 8.002628 5.0224 4.878898 -20.50897 -2.664241 -100.1671 37.43332 30.52793 0 0 -20.99981 -4.990672 16.48651 23.67025
0.9161583 101.2223 12.72158 -0.7960039 2.415453 0.07433495 5.556335 -33.40661 4.937437 -0 20.6965 -0 -6.757702 -6.019732 -3.780996 -5.334297 14.95491 -18.98233 -0 6.600634 -0 -0.5277629 -25.90516 18.11894 -1.395461 -1.34597 6.291554 0.3548713 8.59592 -6.329135 0.8843604 23.07906 7.041452 4.498805 -22.72845 7.205489 5.664955 -19.50097 11.18794 85.93543 37.98233 -18.65668 -0 0 15.49272 -9.878075 8.287938 5.607585 4.552246 -20.3049 -2.628216 -99.92039 36.72931 30.64563 0 0 -20.35818 -4.705726 16.16592 23.24597
0.9130955 100.2256 16.55516 -1.060267 3.213786 0.5530535 5.910944 -35.42626 4.369342 -0 17.17007 -0 -6.850628 -4.331781 -3.435328 -5.051518 15.89921 -18.11602 -0 8.089652 -0 -1.367745 -25.61535 16.60237 -1.500298 -1.250777 6.393745 0.4078551 8.625293 -6.2266 0.812233 23.1089 7.061514 4.436018 -22.80817 7.159297 5.535182 -19.58974 11.27403 85.59047 38.13601 -17.97189 -0 0 15.44907 -10.68837 8.614023 6.131271 4.292247 -20.13849 -2.601649 -99.62923 36.09143 30.65367 0 0 -19.85871 -4.453787 15.8695 22.85859
0.8389919 99.29075 21.03707 -1.499939 3.690307 1.132009 6.48356 -36.22775 4.0683 -0 15.10135 -0 -7.08888 -2.913955 -3.14602 -4.550525 16.75692 -17.23487 -0 10.98269 -0 -2.750085 -24.27298 14.89689 -1.584108 -1.161594 6.470786 0.4535947 8.652609 -6.142659 0.7517859 23.12154 7.092558 4.379424 -22.86673 7.134958 5.410848 -19.65444 11.3444 85.31083 38.26094 -17.39575 -0 0 15.40654 -11.47789 8.97335 6.608256 4.082678 -20.00049 -2.583914 -99.30619 35.50445 30.57934 0 0 -19.46771 -4.228398 15.59246 22.50196
0.7092455 98.61407 26.17519 -2.088571 3.80026 1.721868 7.270078 -35.47922 4.016285 -0 14.65915 -0 -7.455479 -2.049394 -2.934535 -3.882662 17.16814 -16.20713 -0 15.77203 -0 -4.614611 -21.68316 13.01819 -1.652385 -1.076682 6.528716 0.4937617 8.678373 -6.072257 0.7005374 23.12181 7.131774 4.326966 -22.90871 7.127943 5.290969 -19.70093 11.40303 85.08024 38.36216 -16.90186 -0 0 15.36543 -12.25386 9.357872 7.051545 3.909852 -19.88226 -2.57397 -98.96193 34.95535 30.44572 0 0 -19.1562 -4.024967 15.33031 22.17064
0.5717068 98.39846 31.89216 -2.724874 3.549684 2.183667 8.160372 -32.97955 4.154832 -0 15.62931 -0 -7.842893 -2.105629 -2.82049 -3.188035 16.58575 -14.92795 -0 22.86059 -0 -6.706938 -17.87262 11.11641 -1.709555 -0.9948323 6.572722 0.5295957 8.702841 -6.011067 0.6566318 23.11343 7.176794 4.276887 -22.93752 7.134616 5.174381 -19.73427 11.45312 84.88431 38.44299 -16.46728 -0 0 15.32742 -13.02284 9.761084 7.471902 3.76301 -19.77651 -2.57067 -98.60456 34.43312 30.27105 0 0 -18.9007 -3.839664 15.07921 21.85944
